<?xml version="1.0" encoding="UTF-8"?>
<svg width="136px" height="34px" viewBox="0 0 136 34" version="1.1" xmlns="http://www.w3.org/2000/svg" xmlns:xlink="http://www.w3.org/1999/xlink">
    <!-- Generator: Sketch 53.2 (72643) - https://sketchapp.com -->
    <title>健康出行-w</title>
    <desc>Created with Sketch.</desc>
    <defs>
        <linearGradient x1="50%" y1="0%" x2="50%" y2="100%" id="linearGradient-1">
            <stop stop-color="#6EC2FF" offset="0%"></stop>
            <stop stop-color="#006EEE" offset="100%"></stop>
        </linearGradient>
    </defs>
    <g id="Page-1" stroke="none" stroke-width="1" fill="none" fill-rule="evenodd">
        <g id="健康出行-w">
            <path d="M43.7925065,11.502036 C44.1489983,11.6113995 44.3638224,11.9779151 44.287763,12.3473864 L43.8366325,14.5358389 C43.7512835,14.9478734 43.3390535,15.2014785 42.9384357,15.0867946 L42.6487135,15.004033 L39.9814115,27.3532426 C39.9117388,27.6754216 39.5953088,27.8775963 39.2788788,27.8025197 L32.8271896,26.2684748 C32.4979863,26.1904424 32.3029028,25.8457996 32.4039282,25.5183002 L32.4788263,25.2747447 L28.5045812,25.1848893 C28.0075828,25.1730662 27.67896,24.6552152 27.8763659,24.1923415 L29.0805419,21.3648513 C29.2419502,20.9847392 29.6884359,20.8251276 30.0507338,21.0166616 L33.2626438,22.7209589 L36.1970244,13.1631791 L35.9142695,13.082191 C35.4805571,12.9580486 35.2651524,12.4650261 35.4666226,12.0559474 L36.1348996,9.6747786 C36.2910825,9.35791999 36.6498967,9.20126415 36.9849062,9.30412497 L43.7925065,11.502036 Z M29.79372,18.5159894 C29.5686358,19.1313727 28.598073,19.659098 27.8627981,19.8498135 L26.616132,20.2318368 C26.3292247,20.3200872 26.1305504,20.5795077 26.1245482,20.876242 L26.1029401,21.870095 C24.610182,21.9772984 23.4475473,22.7419374 23.4475473,23.6801156 C23.4475473,24.6147401 24.6005784,25.3776022 26.0849334,25.4883593 C25.9942995,26.7718392 25.1893986,27.9102095 23.9727437,28.4160202 C22.7566891,28.6896555 21.5130241,28.8294346 20.2651575,28.8329883 L18.3468403,28.8329883 L18.3468403,33.3414558 C18.2742132,33.7329557 17.9212812,34.0136984 17.5173302,33.9994836 C17.5173302,33.9994836 11.3476236,33.9485472 8.43773565,33.9485472 C3.03391533,33.9485472 -9.65842993,0.774115481 13.0624647,0 L14.7208847,0 C17.246629,0 19.5376856,0.272450743 21.7339067,1.24735058 C25.2206102,2.87376306 27.3556084,7.28924195 26.6659506,11.4316778 C27.6383141,13.1878005 28.3555823,14.4114597 29.1004608,15.8986854 C29.6100513,16.7503901 30.0752252,17.5659655 29.79372,18.5159894 Z" id="合并形状" fill="url(#linearGradient-1)"></path>
            <g id="分组" transform="translate(48.000000, 12.000000)" fill="#FFFFFF">
                <path d="M14.891153,5.63708047 L15.8161295,5.63708047 L15.8161295,4.88008571 L14.891153,4.88008571 L14.891153,5.63708047 Z M14.891153,3.2810285 L15.8161295,3.2810285 L15.8161295,2.44004286 L14.891153,2.44004286 L14.891153,3.2810285 Z M19.0120903,0.842062451 L19.0120903,3.2810285 L19.3491307,3.2810285 L19.3491307,4.88008571 L19.0120903,4.88008571 L19.0120903,7.31905176 L14.8900762,7.31905176 L14.8900762,8.41308686 L19.3491307,8.41308686 L19.3491307,10.0110673 L14.8900762,10.0110673 L14.8900762,11.357075 L19.3491307,11.357075 L19.3491307,12.9561322 L14.8900762,12.9561322 L14.8900762,14.0490905 L10.768062,14.0490905 L10.768062,12.9561322 L8.16003741,12.9561322 L8.16003741,11.357075 L10.768062,11.357075 L10.768062,10.0110673 L8.16003741,10.0110673 L8.16003741,8.41308686 L10.768062,8.41308686 L10.768062,7.31905176 L8.16003741,7.31905176 L8.16003741,5.63708047 L10.768062,5.63708047 L10.768062,4.88008571 L8.16003741,4.88008571 L8.16003741,3.2810285 L10.768062,3.2810285 L10.768062,2.44004286 L8.16003741,2.44004286 L8.16003741,0.842062451 L10.768062,0.842062451 L10.768062,0.0010768062 L14.8900762,0.0010768062 L14.8900762,0.842062451 L19.0120903,0.842062451 Z M7.90806475,5.63708047 L7.31905176,14.5541126 L19.3491307,14.5541126 C19.3491307,15.5081629 18.8161116,15.9841113 17.7500734,15.9841113 L4.3739868,15.9841113 L4.96299979,7.23506088 L4.3739868,7.23506088 L4.3739868,5.63708047 L4.96299979,1.59905721 L4.3739868,1.59905721 L4.3739868,0.0010768062 L7.90806475,0.0010768062 L7.31905176,5.63708047 L7.90806475,5.63708047 Z M4.03802326,15.9841113 L0.756994761,15.9841113 L0.756994761,1.93502075 L-3.55271368e-15,2.02008844 L-3.55271368e-15,0.421031225 L4.03802326,0.0010768062 L4.03802326,15.9841113 Z M37.2139917,11.8622048 C37.0460099,11.3571827 37.1569209,11.0772131 37.5499552,11.0212192 L42.1769914,9.7592023 L42.1769914,11.3571827 L40.6630019,11.7782139 C40.4379494,11.8352847 40.3539585,12.0032664 40.4110293,12.283236 L42.1769914,15.984219 L39.1490124,15.984219 L37.2139917,11.8622048 Z M37.2979825,7.90817244 C38.1949621,8.02123709 38.5599994,7.76926444 38.3920176,7.15117767 L38.3920176,6.98319591 L36.2050242,6.98319591 L36.2050242,7.90817244 L37.2979825,7.90817244 Z M36.2050242,5.55319727 L38.3920176,5.55319727 L38.3920176,4.96418428 L36.2050242,4.96418428 L36.2050242,5.55319727 Z M30.2319802,15.984219 L27.2029244,15.984219 L28.4649413,11.8622048 L27.2029244,11.8622048 L27.2029244,10.2642244 L31.9139515,10.2642244 L30.2319802,15.984219 Z M41.757037,3.36512706 L41.757037,5.55319727 L42.1769914,5.55319727 L42.1769914,6.98319591 L41.757037,6.98319591 L41.757037,7.90817244 C41.8130309,9.08619842 41.2789351,9.64721445 40.1579798,9.59122053 L36.2050242,9.59122053 L36.2050242,14.5542203 C36.2050242,15.5082706 35.6429314,15.984219 34.5219761,15.984219 L32.3349827,15.984219 L32.3349827,9.59122053 L27.2029244,9.59122053 L27.2029244,7.90817244 L32.3349827,7.90817244 L32.3349827,6.98319591 L27.2029244,6.98319591 L27.2029244,5.55319727 L32.3349827,5.55319727 L32.3349827,4.96418428 L27.2029244,4.96418428 L27.2029244,3.36512706 L32.3349827,3.36512706 L32.3349827,2.69212319 L36.2050242,2.69212319 L36.2050242,3.36512706 L41.757037,3.36512706 Z M35.783993,0.00010768062 L35.9519748,0.842170131 L42.1769914,0.842170131 L42.1769914,2.44015054 L26.4459296,2.44015054 L26.4459296,14.5542203 C26.5019235,15.5642645 25.9689045,16.0391361 24.8479492,15.984219 L22.7438699,15.984219 L22.7438699,0.842170131 L31.4939971,0.842170131 L31.3249385,0.00010768062 L35.783993,0.00010768062 Z M60.9677981,2.35605197 L60.9677981,-2.04281037e-14 L65.0058213,-2.04281037e-14 L65.0058213,3.95403238 L57.5187878,3.95403238 L57.5187878,14.5541126 L60.2108033,14.5541126 C60.8267365,14.6671773 61.0797859,14.3861309 60.9677981,13.713127 L60.9677981,4.62703625 L65.0058213,4.62703625 L65.0058213,14.5541126 C65.0607385,15.5641569 64.5287962,16.0401052 63.4078409,15.9841113 L45.6566907,15.9841113 L45.6566907,4.62703625 L49.6947139,4.62703625 L49.6947139,14.5541126 L53.0597333,14.5541126 L53.0597333,3.95403238 L45.6566907,3.95403238 L45.6566907,-2.04281037e-14 L49.6947139,-2.04281037e-14 L49.6947139,2.35605197 L53.0597333,2.35605197 L53.0597333,-2.04281037e-14 L57.5187878,-2.04281037e-14 L57.5187878,2.35605197 L60.9677981,2.35605197 Z M81.7772933,13.7130193 L81.7772933,4.87997803 L74.5422324,4.87997803 L74.5422324,3.19692994 L87.8343282,3.19692994 L87.8343282,4.87997803 L86.6563022,4.87997803 L86.6563022,14.554005 C86.7682901,15.6200431 86.2363478,16.0959914 85.0583218,15.9840036 L78.8333052,15.9840036 L78.8333052,14.554005 L81.0202986,14.554005 C81.6362317,14.6670696 81.8892812,14.3860232 81.7772933,13.7130193 Z M74.5422324,1.59894953 L74.5422324,0.000969125583 L87.8343282,0.000969125583 L87.8343282,1.59894953 L74.5422324,1.59894953 Z M69.2421923,15.9840036 L69.2421923,4.62692857 L68.4851976,4.71199626 L68.4851976,3.11293905 L73.7012468,2.35594429 L73.7012468,3.9539247 L73.2802156,4.03899239 L73.2802156,15.9840036 L69.2421923,15.9840036 Z M73.7012468,0.000969125583 L73.7012468,1.59894953 L68.4851976,2.43993518 L68.4851976,0.84195477 L73.7012468,0.000969125583 Z" id="合并形状"></path>
            </g>
        </g>
    </g>
</svg>