<?xml version="1.0" encoding="UTF-8" standalone="no"?>
<svg width="147px" height="30px" viewBox="0 0 147 30" version="1.1" xmlns="http://www.w3.org/2000/svg" xmlns:xlink="http://www.w3.org/1999/xlink">
    <!-- Generator: Sketch 49.2 (51160) - http://www.bohemiancoding.com/sketch -->
    <title>探路者_b</title>
    <desc>Created with Sketch.</desc>
    <defs>
        <linearGradient x1="50%" y1="-2.48949813e-15%" x2="50%" y2="100%" id="linearGradient-1">
            <stop stop-color="#00429D" offset="0%"></stop>
            <stop stop-color="#1890FF" offset="100%"></stop>
        </linearGradient>
    </defs>
    <g id="Symbols" stroke="none" stroke-width="1" fill="none" fill-rule="evenodd">
        <g id="探路者_b">
            <g id="Page-1">
                <path d="M15.4337,11.4561 C16.0217,14.4101 18.3297,16.0481 20.4067,18.3211 C20.4067,18.3211 24.6867,20.9751 19.1257,24.3901 C15.0767,26.8701 9.0767,29.0161 6.1117,29.9971 L3.4697,29.9971 C0.4707,29.9971 -1.1103,26.4431 0.8967,24.2161 L19.9677,3.1151 C20.1527,2.8841 20.3487,2.6651 20.5567,2.4571 C21.8597,1.1541 23.5797,0.2771 25.5057,0.0691 C25.5637,0.0581 25.6217,0.0461 25.6787,0.0461 C25.9447,0.0121 26.2097,0.0001 26.4867,0.0001 L27.5137,0.0001 C29.8547,0.2891 31.7817,1.9041 32.5197,4.0611 C32.5437,4.1191 32.5667,4.1881 32.5787,4.2571 C29.5897,4.5801 25.9677,5.0411 23.4057,5.6191 C23.4057,5.6191 22.1607,5.8261 20.6487,6.3221 C19.8527,6.5761 18.9877,6.9111 18.1797,7.3371 C16.4497,8.2491 15.0537,9.5871 15.4337,11.4561" id="Fill-1" fill="#1890FF"></path>
                <path d="M29.535,5.461 C19.399,7.966 24.022,12.047 24.022,12.047 C28.223,16.248 34.434,18.473 34.268,23.294 C34.15,26.69 30.819,29.264 28.493,30 L34.151,30 C37.247,30 39.466,27.01 38.568,24.046 L32.711,4.716 C31.779,4.922 30.724,5.167 29.535,5.461" id="Fill-4" fill="url(#linearGradient-1)"></path>
                <g id="Group-32" transform="translate(45.000000, 5.000000)" fill="#333333">
                    <polygon id="Fill-7" points="13.1685 7.4864 17.9885 7.1384 17.9885 5.1374 9.6205 5.7444 9.6205 7.7454 13.1525 7.4864"></polygon>
                    <polygon id="Fill-9" points="20.5977 7.1382 29.1037 7.7452 29.1037 5.7442 20.5977 5.1372"></polygon>
                    <polygon id="Fill-11" points="9.6524 24.9937 13.7034 24.9937 14.8214 12.8077 10.9004 12.8077"></polygon>
                    <path d="M22.1451,8.2559 L16.5791,8.2559 L16.5791,9.4059 L9.6201,9.4059 L9.6201,11.4559 L16.5791,11.4559 L16.5791,24.9939 L19.4631,24.9939 C21.8701,24.9939 22.1451,23.8349 22.1451,22.9599 L22.1451,11.4559 L29.1041,11.4559 L29.1041,9.4059 L22.1451,9.4059 L22.1451,8.2559 Z" id="Fill-13"></path>
                    <polygon id="Fill-15" points="9.6202 4.0274 14.4652 4.0274 14.4652 2.6414 24.3892 2.6414 24.3892 4.0274 29.1042 4.0274 29.1042 0.8024 9.6202 0.8024"></polygon>
                    <polygon id="Fill-17" points="23.9029 12.8082 25.1429 24.9942 29.0709 24.9942 27.8239 12.8082"></polygon>
                    <path d="M7.1436,0.8028 L2.5746,0.8028 L2.5746,2.1068 L0.0956,2.1068 L0.0956,4.0278 L2.5746,4.0278 L2.5746,10.0438 L0.0906,10.6428 L0.0906,12.8698 L2.5716,12.2718 C2.5716,12.2718 2.5636,21.8178 2.5556,21.9148 C2.5396,22.2148 2.5356,22.4938 2.3976,22.7048 C2.2026,22.9888 1.9156,22.9768 1.4866,22.9768 L0.0436,22.9768 L0.0436,24.9938 L2.5556,24.9938 L5.4796,24.9938 C6.2126,24.9938 6.5736,24.8638 6.8416,24.5728 C7.1086,24.2728 7.1416,23.5998 7.1416,22.8958 L7.1416,11.1698 L8.3186,10.8858 L8.3186,8.6578 L7.1436,8.9418 L7.1436,4.0278 L8.3186,4.0278 L8.3186,2.1068 L7.1436,2.1068 L7.1436,0.8028 Z" id="Fill-19"></path>
                    <path d="M39.589,2.6797 L42.668,2.6797 L42.668,7.5407 C42.668,7.9877 42.305,8.3507 41.857,8.3507 L39.589,8.3507 L39.589,2.6797 Z M35.828,10.2207 L44.279,10.2217 C44.357,10.2247 44.434,10.2267 44.507,10.2267 C45.178,10.2267 45.674,10.0627 45.983,9.7387 C46.312,9.3927 46.46,8.8327 46.422,8.0607 L46.422,0.8027 L35.828,0.8027 L35.828,10.2207 Z" id="Fill-21"></path>
                    <path d="M65.2472,2.9624 L65.2472,1.5874 L53.1522,1.5874 C52.3252,1.5874 52.1932,1.0484 52.1762,0.8024 L47.7242,0.8024 L47.7242,1.2774 C47.6822,2.1874 47.8482,2.8434 48.2162,3.2294 C48.5122,3.5394 48.9452,3.6904 49.5412,3.6904 C49.6042,3.6904 49.6692,3.6884 49.7532,3.6844 L60.6652,3.6844 L60.6652,4.0084 C60.6652,4.3314 60.3272,4.4804 59.5322,4.7074 L55.2552,6.1764 L47.7242,4.1684 L47.7242,6.7684 L50.8632,7.6394 L47.7242,8.6864 L47.7242,11.3834 L55.2312,8.8814 L65.2472,11.4174 L65.2472,8.7024 L59.4222,7.1694 L63.9292,5.7844 C64.8942,5.5614 65.3252,4.6424 65.2472,2.9624" id="Fill-23"></path>
                    <path d="M44.462,11.6841 L40.142,11.6841 L40.142,23.0131 L39.128,23.0121 C38.68,23.0111 38.318,22.6491 38.318,22.2021 L38.318,11.6841 L35.828,11.6841 L35.827,23.1281 C35.827,23.9521 35.843,24.2841 36.13,24.5711 C36.525,24.9651 37.223,24.9931 37.987,24.9931 L46.422,24.9931 L46.422,23.0131 L44.462,23.0131 L44.462,15.5121 L46.422,15.5121 L46.422,13.5141 L44.462,13.5141 L44.462,11.6841 Z" id="Fill-25"></path>
                    <path d="M53.2452,14.9419 L59.7262,14.9419 L59.7262,20.6129 C59.7262,21.5079 59.0002,22.2329 58.1062,22.2329 L53.2452,22.2329 L53.2452,14.9419 Z M47.7242,24.9929 C47.7242,24.9929 63.0642,24.9989 63.3502,24.9989 C64.1642,24.9989 64.5652,24.8369 64.8682,24.5169 C65.1542,24.2139 65.2472,23.8509 65.2472,23.0939 L65.2472,12.1759 L47.7242,12.1759 L47.7242,24.9929 Z" id="Fill-27"></path>
                    <path d="M95.9254,13.4195 L95.9254,15.9125 C95.9254,16.3175 95.5624,16.6455 95.1154,16.6455 L78.7734,16.6455 L78.7734,13.4195 L95.9254,13.4195 Z M95.6964,22.0265 C95.3204,22.3145 94.8504,22.2565 94.3614,22.2565 L78.7114,22.2565 L78.7734,19.0345 L95.9254,19.0345 L95.9214,20.9215 C95.9214,21.4185 95.9734,21.8155 95.6964,22.0265 Z M101.3894,4.1565 L101.3894,2.1095 L89.7554,2.1095 L89.7554,0.8025 L83.4754,0.8025 L83.4754,2.1095 L71.9714,2.1095 L71.9714,4.1565 L83.4754,4.1565 L83.4754,6.5305 L71.9714,6.5305 L71.9714,8.5765 L75.8364,8.5765 L72.3064,12.9655 L73.3094,12.9655 L73.3094,24.9925 L99.1134,24.9925 C99.2154,24.9975 99.3124,25.0005 99.4074,25.0005 C100.2034,25.0005 100.7644,24.8335 101.0744,24.5035 C101.3174,24.2445 101.4214,23.8755 101.3894,23.3555 L101.3894,10.8685 L79.7394,10.8685 L81.6854,8.5765 L101.3894,8.5765 L101.3894,6.5305 L97.8094,6.5305 L98.8554,5.1165 L93.1204,5.1165 L92.0744,6.5305 L89.7554,6.5305 L89.7554,4.1565 L101.3894,4.1565 Z" id="Fill-29"></path>
                </g>
            </g>
        </g>
    </g>
</svg>